<svg width="28" height="23" viewBox="0 0 28 23" fill="none" xmlns="http://www.w3.org/2000/svg">
<path id="Vector" d="M1.00536e-06 11.5C9.72204e-07 11.8793 0.150796 12.2282 0.452262 12.5165L10.4491 22.5449C10.7808 22.8786 11.0975 23 11.4593 23C12.1982 23 12.7712 22.4538 12.7712 21.6953C12.7712 21.3311 12.6505 20.9822 12.4092 20.7394L9.03174 17.2803L3.04579 11.7882L2.7442 12.5468L7.5993 12.8503L26.6731 12.8503C27.4572 12.8503 28 12.2889 28 11.5C28 10.7111 27.4572 10.1497 26.6731 10.1497L7.5993 10.1497L2.7442 10.4531L3.04579 11.1965L9.03174 5.71958L12.4092 2.26057C12.6505 2.03297 12.7712 1.66879 12.7712 1.30474C12.7712 0.54608 12.1982 5.25913e-07 11.4593 4.61314e-07C11.0975 4.29683e-07 10.7808 0.136454 10.4792 0.424771L0.452262 10.4835C0.150796 10.7718 1.03852e-06 11.1207 1.00536e-06 11.5Z" fill="#696969"/>
</svg>
