<svg width="26" height="21" viewBox="0 0 26 21" fill="none" xmlns="http://www.w3.org/2000/svg">
<path id="Vector" d="M11.0324 13.7942C10.2736 13.7942 9.82907 13.3715 9.82907 12.613V11.7353C6.64188 11.5186 3.46553 10.8684 0.169922 9.62226V7.83438C4.22438 9.61144 8.28968 10.2399 12.7127 10.2399C17.1467 10.2399 21.2119 9.61144 25.2664 7.83438V9.62226C21.9708 10.8684 18.7944 11.5186 15.6072 11.7353V12.613C15.6072 13.3715 15.1627 13.7942 14.4039 13.7942H11.0324ZM3.51973 21H21.9166C24.1606 21 25.2664 19.9165 25.2664 17.6951V7.15172C25.2664 4.93035 24.1606 3.84676 21.9166 3.84676H3.51973C1.28652 3.84676 0.169922 4.93035 0.169922 7.15172V17.6951C0.169922 19.9165 1.28652 21 3.51973 21ZM7.21644 4.78948H8.89676V2.87152C8.89676 2.04799 9.38461 1.58205 10.2302 1.58205H15.2061C16.0517 1.58205 16.5287 2.04799 16.5287 2.87152V4.76781H18.209V2.99072C18.209 0.953562 17.1357 0 15.1736 0H10.2518C8.39809 0 7.21644 0.953562 7.21644 2.99072V4.78948Z" fill="white" fill-opacity="0.24"/>
</svg>
