<svg xmlns="http://www.w3.org/2000/svg" width="12" height="12" viewBox="0 0 12 12" fill="none">
  <g clip-path="url(#clip0_3192_1961)">
    <path d="M0.5 3H11.5C11.6326 3 11.7598 2.94732 11.8536 2.85355C11.9473 2.75978 12 2.63261 12 2.5C12 2.36739 11.9473 2.24021 11.8536 2.14645C11.7598 2.05268 11.6326 2 11.5 2H0.5C0.367392 2 0.240215 2.05268 0.146447 2.14645C0.0526784 2.24021 0 2.36739 0 2.5C0 2.63261 0.0526784 2.75978 0.146447 2.85355C0.240215 2.94732 0.367392 3 0.5 3Z" fill="white"/>
    <path d="M11.5 4.5H0.5C0.367392 4.5 0.240215 4.55268 0.146447 4.64645C0.0526784 4.74021 0 4.86739 0 5C0 5.13261 0.0526784 5.25978 0.146447 5.35355C0.240215 5.44732 0.367392 5.5 0.5 5.5H11.5C11.6326 5.5 11.7598 5.44732 11.8536 5.35355C11.9473 5.25978 12 5.13261 12 5C12 4.86739 11.9473 4.74021 11.8536 4.64645C11.7598 4.55268 11.6326 4.5 11.5 4.5Z" fill="white"/>
    <path d="M11.5 9.5H0.5C0.367392 9.5 0.240215 9.55268 0.146447 9.64645C0.0526784 9.74022 0 9.86739 0 10C0 10.1326 0.0526784 10.2598 0.146447 10.3536C0.240215 10.4473 0.367392 10.5 0.5 10.5H11.5C11.6326 10.5 11.7598 10.4473 11.8536 10.3536C11.9473 10.2598 12 10.1326 12 10C12 9.86739 11.9473 9.74022 11.8536 9.64645C11.7598 9.55268 11.6326 9.5 11.5 9.5Z" fill="white"/>
    <path d="M11.5 7H0.5C0.367392 7 0.240215 7.05268 0.146447 7.14645C0.0526784 7.24022 0 7.36739 0 7.5C0 7.63261 0.0526784 7.75979 0.146447 7.85356C0.240215 7.94733 0.367392 8.00001 0.5 8.00001H11.5C11.6326 8.00001 11.7598 7.94733 11.8536 7.85356C11.9473 7.75979 12 7.63261 12 7.5C12 7.36739 11.9473 7.24022 11.8536 7.14645C11.7598 7.05268 11.6326 7 11.5 7Z" fill="white"/>
  </g>
  <defs>
    <clipPath id="clip0_3192_1961">
      <rect width="12" height="12" fill="white"/>
    </clipPath>
  </defs>
</svg>