<svg width="22" height="22" viewBox="0 0 22 22" fill="none" xmlns="http://www.w3.org/2000/svg">
<path id="Vector" d="M15.1547 5.77512C16.6019 4.80715 18.0857 0.446484 16.4553 0.0247939C14.7792 -0.377729 14.2571 4.23212 15.1547 5.77512ZM15.3745 6.14889C17.4995 6.15847 21.841 2.52619 20.3389 0.944843C18.8367 -0.626909 15.3654 3.91585 15.3745 6.14889ZM15.7317 6.36932C17.1972 7.3277 21.612 6.76226 21.2273 5.03716C20.8334 3.30248 16.6568 4.86465 15.7317 6.36932ZM0.701461 21.4543C1.16858 21.9527 1.883 22.2689 2.77144 21.6844L7.36938 18.675L6.27027 17.5346C6.02297 17.2758 6.02297 16.8924 6.26111 16.6432C6.49925 16.394 6.86562 16.3845 7.11292 16.6432L8.41356 17.9849L9.43939 17.3045L7.90061 15.752C7.65332 15.4932 7.66248 15.1098 7.89146 14.8606C8.13875 14.6114 8.50516 14.6018 8.74323 14.851L10.4835 16.6336L14.9533 13.6818C18.0765 11.6309 18.6352 8.42981 16.2996 5.94763L15.5119 5.11383C13.4786 2.95746 10.8591 3.14914 8.92644 5.4301L11.3628 7.94108C11.6101 8.19984 11.6101 8.57359 11.3811 8.82278C11.143 9.08154 10.7766 9.0911 10.5293 8.83235L8.18455 6.43641L7.5434 7.49063L9.29284 9.2828C9.54014 9.54156 9.54014 9.93453 9.30199 10.1741C9.05469 10.4233 8.69743 10.4329 8.45014 10.1741L6.8931 8.5928L0.463322 19.2596C-0.049595 20.1222 0.161067 20.8889 0.701461 21.4543Z" fill="white" fill-opacity="0.24"/>
</svg>
