<svg xmlns="http://www.w3.org/2000/svg" width="23" height="23" viewBox="0 0 23 23" fill="none">
<path d="M19.1592 5.93412C19.7443 5.35735 19.7477 4.4144 19.1668 3.83344C18.5858 3.25248 17.6429 3.25587 17.0661 3.84099L12.9245 8.04265C12.1411 8.83731 10.8591 8.8373 10.0758 8.04264L5.93412 3.84099C5.35735 3.25587 4.4144 3.25248 3.83344 3.83344C3.25248 4.4144 3.25587 5.35735 3.84099 5.93412L8.04265 10.0758C8.83731 10.8591 8.8373 12.1411 8.04264 12.9245L3.84099 17.0661C3.25587 17.6429 3.25248 18.5858 3.83344 19.1668C4.4144 19.7477 5.35735 19.7443 5.93412 19.1592L10.0758 14.9576C10.8591 14.1629 12.1411 14.1629 12.9245 14.9576L17.0661 19.1592C17.6429 19.7443 18.5858 19.7477 19.1668 19.1668C19.7477 18.5858 19.7443 17.6429 19.1592 17.0661L14.9576 12.9245C14.1629 12.1411 14.1629 10.8591 14.9576 10.0758L19.1592 5.93412Z" fill="#525252"/>
</svg>