<svg width="32" height="31" viewBox="0 0 32 31" fill="none" xmlns="http://www.w3.org/2000/svg">
<path id="Vector" d="M15.7297 31C24.2419 31 31.2895 23.9643 31.2895 15.5C31.2895 7.0206 24.2267 0 15.7145 0C7.21761 0 0.169922 7.0206 0.169922 15.5C0.169922 23.9643 7.23286 31 15.7297 31ZM15.7297 24.4506C15.3026 24.4506 14.9823 24.1466 14.9823 23.7059V22.5815C12.8771 22.3838 11.1228 21.229 10.6804 19.4207C10.6347 19.2687 10.6042 19.1015 10.6042 18.9344C10.6042 18.3873 10.9855 18.0074 11.5194 18.0074C11.9923 18.0074 12.3127 18.2505 12.4957 18.7976C12.7551 19.831 13.5789 20.6211 14.9823 20.8187V16.1991L14.8755 16.1687C12.2517 15.5456 10.894 14.3603 10.894 12.3696C10.894 10.227 12.6025 8.73776 14.9823 8.47943V7.4005C14.9823 6.95982 15.3026 6.65589 15.7297 6.65589C16.1568 6.65589 16.4772 6.95982 16.4772 7.4005V8.47943C18.4908 8.70737 20.1079 9.87747 20.5197 11.5642C20.5502 11.7314 20.596 11.8986 20.596 12.0505C20.596 12.5976 20.1994 12.9775 19.6655 12.9775C19.162 12.9775 18.857 12.6736 18.7045 12.2025C18.3841 11.1539 17.606 10.4853 16.4772 10.2878V14.6491L16.6908 14.6946C19.4214 15.1809 20.8096 16.4725 20.8096 18.6001C20.8096 20.9707 18.9027 22.3838 16.4772 22.6118V23.7059C16.4772 24.1466 16.1568 24.4506 15.7297 24.4506ZM14.9823 14.254V10.2878C13.6551 10.5157 12.8466 11.3211 12.8466 12.2633C12.8466 13.1903 13.4721 13.8132 14.8755 14.2236L14.9823 14.254ZM16.4772 16.5637V20.8187C18.079 20.6364 18.857 19.8005 18.857 18.7064C18.857 17.7187 18.3383 17.0653 16.8129 16.655L16.4772 16.5637Z" fill="#9C9C9C"/>
</svg>
