<svg xmlns="http://www.w3.org/2000/svg" width="75" height="75" viewBox="0 0 75 75" fill="none">
<g clip-path="url(#clip0_2532_2796)">
<path d="M40.625 31.25C40.625 31.8681 40.4417 32.4723 40.0984 32.9862C39.755 33.5001 39.2669 33.9006 38.6959 34.1371C38.1249 34.3736 37.4966 34.4355 36.8904 34.315C36.2842 34.1944 35.7273 33.8968 35.2903 33.4597C34.8533 33.0227 34.5556 32.4659 34.4351 31.8597C34.3145 31.2535 34.3764 30.6251 34.6129 30.0541C34.8494 29.4831 35.25 28.995 35.7639 28.6517C36.2778 28.3083 36.882 28.125 37.5 28.125C38.3288 28.125 39.1237 28.4542 39.7097 29.0403C40.2958 29.6263 40.625 30.4212 40.625 31.25ZM75 37.5C75 44.9168 72.8007 52.167 68.6801 58.3339C64.5596 64.5007 58.7029 69.3072 51.8506 72.1455C44.9984 74.9838 37.4584 75.7264 30.1841 74.2794C22.9098 72.8325 16.228 69.261 10.9835 64.0165C5.73904 58.772 2.16751 52.0902 0.720569 44.8159C-0.726377 37.5416 0.0162482 30.0016 2.85453 23.1494C5.69282 16.2971 10.4993 10.4404 16.6661 6.31989C22.833 2.19934 30.0832 0 37.5 0C47.4423 0.0107534 56.9744 3.96509 64.0046 10.9954C71.0349 18.0257 74.9893 27.5577 75 37.5ZM46.875 31.25C46.8821 29.5296 46.4157 27.8405 45.5269 26.3675C44.638 24.8945 43.361 23.6945 41.8356 22.8989C40.3103 22.1033 38.5954 21.7428 36.8788 21.8568C35.1622 21.9708 33.5101 22.555 32.1033 23.5453C30.6966 24.5357 29.5895 25.894 28.9032 27.4716C28.217 29.0492 27.9781 30.7852 28.2127 32.4895C28.4472 34.1938 29.1463 35.8007 30.2332 37.1343C31.3201 38.4678 32.753 39.4765 34.375 40.05V50C34.375 50.8288 34.7043 51.6237 35.2903 52.2097C35.8764 52.7958 36.6712 53.125 37.5 53.125C38.3288 53.125 39.1237 52.7958 39.7097 52.2097C40.2958 51.6237 40.625 50.8288 40.625 50V40.05C42.4466 39.406 44.0247 38.2149 45.1435 36.6397C46.2623 35.0645 46.867 33.1821 46.875 31.25Z" fill="#FFAF14"/>
</g>
<defs>
<clipPath id="clip0_2532_2796">
<rect width="75" height="75" fill="white"/>
</clipPath>
</defs>
</svg>