<svg width="108" height="26" viewBox="0 0 108 26" fill="none" xmlns="http://www.w3.org/2000/svg">
<path id="Vector 14" d="M4.99981 18.0001C9.78367 14.7359 14.6078 14.7467 19 11C20.0266 10.1243 28.4335 13.843 28.6813 14.3065C31.892 20.312 35.0248 22.5494 41.5884 19.7665C45.8166 17.9737 51.3653 14.0325 55.185 11.1944C56.5475 10.182 57.8494 9.05372 59.1783 7.9774V7.9774C60.3509 7.02765 62.307 6.56856 63.707 6.00528C64.6787 5.6143 64.6979 5.53213 66.5075 5.18485C67.164 5.05885 67.8449 5.03874 68.506 5.13779C69.1327 5.23169 69.6771 5.32992 70.1511 5.43044C73.553 6.1519 76.6845 8.03194 80.1145 8.60538C80.8566 8.72945 81.5719 8.80557 82.244 8.83037C89.2199 9.08779 96.41 8.31475 103.406 8.14586" stroke="#257CFF" stroke-width="9" stroke-linecap="round"/>
</svg>
