<svg xmlns="http://www.w3.org/2000/svg" width="74" height="77" viewBox="0 0 74 77" fill="none">
<path d="M43.3512 76.6931C36.3086 77.5877 29.1558 76.5175 22.6833 73.601C16.2109 70.6845 10.6709 66.0352 6.67559 60.167C2.68032 54.2987 0.385378 47.44 0.044427 40.349C-0.296524 33.258 1.32979 26.2108 4.74361 19.9863C8.15744 13.7618 13.2258 8.60242 19.3886 5.07838C25.5514 1.55434 32.5685 -0.19711 39.6645 0.0176146C46.7604 0.232339 53.6588 2.40487 59.5973 6.2951C65.5357 10.1853 70.2828 15.6417 73.314 22.0613L62.1682 27.3242C60.1075 22.9599 56.8801 19.2504 52.8429 16.6056C48.8057 13.9608 44.1158 12.4838 39.2917 12.3379C34.4675 12.1919 29.6969 13.3826 25.5072 15.7784C21.3174 18.1742 17.8717 21.6818 15.5508 25.9135C13.2299 30.1452 12.1243 34.9363 12.3561 39.7571C12.5879 44.5779 14.1481 49.2407 16.8643 53.2302C19.5804 57.2197 23.3468 60.3806 27.7471 62.3633C32.1474 64.3461 37.0102 65.0736 41.7981 64.4655L43.3512 76.6931Z" fill="#005AE0"/>
</svg>