<svg width="81" height="81" viewBox="0 0 81 81" fill="none" xmlns="http://www.w3.org/2000/svg">
<g clip-path="url(#clip0_1909_517)">
<path d="M77.625 54.001C76.7298 54.001 75.8714 54.3566 75.2385 54.9895C74.6055 55.6224 74.25 56.4809 74.25 57.376V64.126C74.25 66.8113 73.1832 69.3866 71.2844 71.2854C69.3856 73.1842 66.8103 74.2509 64.125 74.2509H57.375C56.4799 74.2509 55.6214 74.6065 54.9885 75.2394C54.3556 75.8724 54 76.7308 54 77.6259C54 78.521 54.3556 79.3795 54.9885 80.0124C55.6214 80.6453 56.4799 81.0009 57.375 81.0009H64.125C68.5989 80.9956 72.888 79.216 76.0515 76.0524C79.215 72.8889 80.9946 68.5998 80.9999 64.126V57.376C80.9999 56.4809 80.6444 55.6224 80.0114 54.9895C79.3785 54.3566 78.5201 54.001 77.625 54.001Z" fill="#FFAF14"/>
<path d="M3.375 27C4.27011 27 5.12855 26.6444 5.76149 26.0115C6.39442 25.3785 6.75 24.5201 6.75 23.625V16.875C6.75 14.1897 7.81674 11.6144 9.71554 9.71554C11.6144 7.81674 14.1897 6.75 16.875 6.75H23.625C24.5201 6.75 25.3785 6.39442 26.0115 5.76149C26.6444 5.12855 27 4.27011 27 3.375C27 2.47989 26.6444 1.62145 26.0115 0.988515C25.3785 0.355579 24.5201 0 23.625 0L16.875 0C12.4011 0.00535902 8.11201 1.78498 4.94849 4.94849C1.78498 8.11201 0.00535902 12.4011 0 16.875L0 23.625C0 24.5201 0.355579 25.3785 0.988515 26.0115C1.62145 26.6444 2.47989 27 3.375 27Z" fill="#FFAF14"/>
<path d="M23.625 74.2509H16.875C14.1897 74.2509 11.6144 73.1842 9.71554 71.2854C7.81674 69.3866 6.75 66.8113 6.75 64.126V57.376C6.75 56.4809 6.39442 55.6224 5.76149 54.9895C5.12855 54.3566 4.27011 54.001 3.375 54.001C2.47989 54.001 1.62145 54.3566 0.988515 54.9895C0.355579 55.6224 0 56.4809 0 57.376L0 64.126C0.00535902 68.5998 1.78498 72.8889 4.94849 76.0524C8.11201 79.216 12.4011 80.9956 16.875 81.0009H23.625C24.5201 81.0009 25.3785 80.6453 26.0115 80.0124C26.6444 79.3795 27 78.521 27 77.6259C27 76.7308 26.6444 75.8724 26.0115 75.2394C25.3785 74.6065 24.5201 74.2509 23.625 74.2509Z" fill="#FFAF14"/>
<path d="M64.125 0H57.375C56.4799 0 55.6214 0.355579 54.9885 0.988515C54.3556 1.62145 54 2.47989 54 3.375C54 4.27011 54.3556 5.12855 54.9885 5.76149C55.6214 6.39442 56.4799 6.75 57.375 6.75H64.125C66.8103 6.75 69.3856 7.81674 71.2844 9.71554C73.1832 11.6144 74.25 14.1897 74.25 16.875V23.625C74.25 24.5201 74.6055 25.3785 75.2385 26.0115C75.8714 26.6444 76.7298 27 77.625 27C78.5201 27 79.3785 26.6444 80.0114 26.0115C80.6444 25.3785 80.9999 24.5201 80.9999 23.625V16.875C80.9946 12.4011 79.215 8.11201 76.0515 4.94849C72.888 1.78498 68.5989 0.00535902 64.125 0V0Z" fill="#FFAF14"/>
<path d="M40.5 37.125C47.9558 37.125 54 31.0808 54 23.625C54 16.1692 47.9558 10.125 40.5 10.125C33.0441 10.125 27 16.1692 27 23.625C27 31.0808 33.0441 37.125 40.5 37.125Z" fill="#FFAF14"/>
<path d="M37.126 43.876C31.757 43.8813 26.6094 46.0165 22.813 49.813C19.0165 53.6094 16.8813 58.757 16.876 64.126C16.876 65.0211 17.2316 65.8795 17.8645 66.5125C18.4974 67.1454 19.3559 67.501 20.251 67.501H60.751C61.6461 67.501 62.5045 67.1454 63.1375 66.5125C63.7704 65.8795 64.126 65.0211 64.126 64.126C64.1206 58.757 61.9854 53.6094 58.189 49.813C54.3925 46.0165 49.245 43.8813 43.876 43.876H37.126Z" fill="#FFAF14"/>
</g>
<defs>
<clipPath id="clip0_1909_517">
<rect width="81" height="81" fill="white"/>
</clipPath>
</defs>
</svg>
