<svg width="24" height="23" viewBox="0 0 24 23" fill="none" xmlns="http://www.w3.org/2000/svg">
<path id="Vector" d="M20.0817 4.00852H8.4766C6.36199 4.00852 5.29963 5.0699 5.29963 7.20297V11.1187C8.88127 11.1187 11.8357 14.1174 11.8357 17.7652C11.8357 18.9606 11.5119 20.0838 10.9555 21.0627H20.3852C22.1963 21.0627 23.2587 19.9911 23.2587 17.8683V7.20297C23.2587 5.0802 22.1862 4.00852 20.0817 4.00852ZM10.0853 4.10126H11.7143C11.7143 2.71013 12.8171 1.56631 14.274 1.56631C15.7412 1.56631 16.8339 2.71013 16.8339 4.10126H18.4628C18.4628 1.89606 16.6011 0 14.274 0C11.9571 0 10.0853 1.89606 10.0853 4.10126ZM5.30974 23C8.09213 23 10.4495 20.6196 10.4495 17.755C10.4495 14.8903 8.12248 12.5202 5.30974 12.5202C2.48689 12.5202 0.169922 14.8903 0.169922 17.755C0.169922 20.6403 2.48689 23 5.30974 23ZM5.30974 21.0422C4.92527 21.0422 4.68244 20.7845 4.68244 20.4032V18.3939H2.70948C2.33512 18.3939 2.08217 18.1465 2.08217 17.755C2.08217 17.3737 2.33512 17.1264 2.70948 17.1264H4.68244V15.117C4.68244 14.7357 4.92527 14.4884 5.30974 14.4884C5.6841 14.4884 5.92693 14.7357 5.92693 15.117V17.1264H7.89988C8.27425 17.1264 8.52719 17.3737 8.52719 17.755C8.52719 18.1465 8.27425 18.3939 7.89988 18.3939H5.92693V20.4032C5.92693 20.7845 5.6841 21.0422 5.30974 21.0422Z" fill="white" fill-opacity="0.24"/>
</svg>
