<svg xmlns="http://www.w3.org/2000/svg" width="24" height="24" viewBox="0 0 24 24" fill="none">
  <g clip-path="url(#clip0_3133_1538)">
    <path d="M20.0003 8C18.9395 8 17.922 7.57857 17.1719 6.82843C16.4218 6.07828 16.0003 5.06087 16.0003 4C16.0003 2.93913 16.4218 1.92172 17.1719 1.17157C17.922 0.421427 18.9395 0 20.0003 0C21.0612 0 22.0786 0.421427 22.8288 1.17157C23.5789 1.92172 24.0003 2.93913 24.0003 4C24.0003 5.06087 23.5789 6.07828 22.8288 6.82843C22.0786 7.57857 21.0612 8 20.0003 8ZM21.4523 24H12.5893C12.141 24.004 11.6996 23.8895 11.3096 23.6683C10.9196 23.4471 10.5949 23.1269 10.3683 22.74C10.1462 22.3672 10.0266 21.9423 10.0215 21.5084C10.0164 21.0745 10.1261 20.6469 10.3393 20.269L14.7753 12.31C15.0037 11.9155 15.3319 11.588 15.7268 11.3604C16.1217 11.1327 16.5695 11.0129 17.0253 11.0129C17.4812 11.0129 17.929 11.1327 18.3239 11.3604C18.7188 11.588 19.0469 11.9155 19.2753 12.31L23.7003 20.263C23.914 20.6415 24.0239 21.0697 24.019 21.5043C24.0141 21.9389 23.8945 22.3645 23.6723 22.738C23.4458 23.1249 23.1213 23.4452 22.7316 23.6668C22.3419 23.8883 21.9006 24.0033 21.4523 24ZM8.64433 23.754C8.24493 23.0817 8.02974 22.316 8.02044 21.5341C8.01113 20.7522 8.20804 19.9816 8.59133 19.3L13.0283 11.34C13.3907 10.6889 13.9084 10.1376 14.5353 9.735L12.9443 6.755C12.6578 6.22424 12.233 5.78088 11.715 5.47187C11.197 5.16286 10.605 4.99972 10.0018 4.99972C9.39865 4.99972 8.80671 5.16286 8.28869 5.47187C7.77068 5.78088 7.34589 6.22424 7.05933 6.755L0.406328 19.055C0.130431 19.5652 -0.00832076 20.1382 0.00364277 20.7181C0.0156063 21.298 0.177876 21.8649 0.47458 22.3632C0.771283 22.8616 1.19226 23.2744 1.69634 23.5613C2.20041 23.8482 2.77032 23.9994 3.35033 24H8.80033C8.74533 23.92 8.69333 23.838 8.64433 23.754Z" fill="#E8E8E8"/>
  </g>
  <defs>
    <clipPath id="clip0_3133_1538">
      <rect width="24" height="24" fill="white"/>
    </clipPath>
  </defs>
</svg>