<svg xmlns="http://www.w3.org/2000/svg" width="32" height="32" viewBox="0 0 32 32" fill="none">
<g clip-path="url(#clip0_2115_2827)">
<path d="M32 12C32 10.9391 31.5786 9.92172 30.8284 9.17157C30.0783 8.42143 29.0609 8 28 8H24C24 5.87827 23.1571 3.84344 21.6569 2.34315C20.1566 0.842855 18.1217 0 16 0C13.8783 0 11.8434 0.842855 10.3431 2.34315C8.84286 3.84344 8 5.87827 8 8H4C2.93913 8 1.92172 8.42143 1.17157 9.17157C0.421427 9.92172 0 10.9391 0 12L0 25.3333C0.00211714 27.1008 0.705176 28.7953 1.95496 30.045C3.20474 31.2948 4.89921 31.9979 6.66667 32H25.3333C27.1008 31.9979 28.7953 31.2948 30.045 30.045C31.2948 28.7953 31.9979 27.1008 32 25.3333V12ZM10.6667 8C10.6667 6.58551 11.2286 5.22896 12.2288 4.22876C13.229 3.22857 14.5855 2.66667 16 2.66667C17.4145 2.66667 18.771 3.22857 19.7712 4.22876C20.7714 5.22896 21.3333 6.58551 21.3333 8H10.6667Z" fill="white"/>
</g>
<defs>
<clipPath id="clip0_2115_2827">
<rect width="32" height="32" fill="white"/>
</clipPath>
</defs>
</svg>