<svg xmlns="http://www.w3.org/2000/svg" width="24" height="24" viewBox="0 0 24 24" fill="none">
<g clip-path="url(#clip0_2115_2822)">
<path d="M20.8006 11.9999C25.7396 9.01095 21.5736 1.54695 16.4006 4.36795C16.2276 -1.40605 7.77157 -1.40305 7.60057 4.36795C2.46757 1.55095 -1.76143 8.98595 3.20057 11.9439C-1.74843 14.9789 2.40057 22.1549 7.60057 19.6359C7.78057 25.4059 16.2226 25.4009 16.4006 19.6359C21.5626 22.1529 25.7726 14.9999 20.8006 11.9999ZM12.0006 15.9999C10.9397 15.9999 9.92229 15.5785 9.17214 14.8284C8.422 14.0782 8.00057 13.0608 8.00057 11.9999C8.00057 10.9391 8.422 9.92167 9.17214 9.17152C9.92229 8.42138 10.9397 7.99995 12.0006 7.99995C13.0614 7.99995 14.0789 8.42138 14.829 9.17152C15.5791 9.92167 16.0006 10.9391 16.0006 11.9999C16.0006 13.0608 15.5791 14.0782 14.829 14.8284C14.0789 15.5785 13.0614 15.9999 12.0006 15.9999ZM14.0006 11.9999C14.0006 12.5304 13.7899 13.0391 13.4148 13.4142C13.0397 13.7892 12.531 13.9999 12.0006 13.9999C11.4701 13.9999 10.9614 13.7892 10.5864 13.4142C10.2113 13.0391 10.0006 12.5304 10.0006 11.9999C10.0006 11.4695 10.2113 10.9608 10.5864 10.5857C10.9614 10.2107 11.4701 9.99995 12.0006 9.99995C12.531 9.99995 13.0397 10.2107 13.4148 10.5857C13.7899 10.9608 14.0006 11.4695 14.0006 11.9999Z" fill="#FFAF14"/>
</g>
<defs>
<clipPath id="clip0_2115_2822">
<rect width="24" height="24" fill="white"/>
</clipPath>
</defs>
</svg>