<svg width="24" height="24" viewBox="0 0 24 24" fill="none" xmlns="http://www.w3.org/2000/svg">
<path d="M5.5 17.5C7.01878 17.5 8.25 16.0449 8.25 14.25C8.25 12.4551 7.01878 11 5.5 11C3.98122 11 2.75 12.4551 2.75 14.25C2.75 16.0449 3.98122 17.5 5.5 17.5Z" fill="#525252"/>
<path d="M5.5 18.5828C3.22287 18.5858 1.37754 20.7666 1.375 23.4578C1.375 23.7569 1.5802 23.9994 1.83333 23.9994H9.16665C9.41978 23.9994 9.62498 23.7569 9.62498 23.4578C9.62247 20.7666 7.77713 18.5857 5.5 18.5828Z" fill="#525252"/>
<path d="M10.5 14.5C13.1234 14.5 15.25 12.3734 15.25 9.75C15.25 7.12665 13.1234 5 10.5 5C7.87665 5 5.75 7.12665 5.75 9.75C5.75 12.3734 7.87665 14.5 10.5 14.5Z" fill="#ADADAD"/>
<path d="M10.5 16.0825C6.56678 16.0869 3.37938 19.2743 3.375 23.2075C3.375 23.6447 3.72943 23.9992 4.16665 23.9992H16.8333C17.2705 23.9992 17.625 23.6447 17.625 23.2075C17.6206 19.2743 14.4332 16.0869 10.5 16.0825Z" fill="#ADADAD"/>
<path d="M14.5 12C17.9518 12 20.75 9.31371 20.75 6C20.75 2.68629 17.9518 0 14.5 0C11.0482 0 8.25 2.68629 8.25 6C8.25 9.31371 11.0482 12 14.5 12Z" fill="#E8E8E8"/>
<path d="M14.5 13.999C9.32471 14.0046 5.13076 18.0307 5.125 22.999C5.125 23.5513 5.59136 23.999 6.16665 23.999H22.8333C23.4086 23.999 23.875 23.5513 23.875 22.999C23.8692 18.0307 19.6753 14.0045 14.5 13.999Z" fill="#E8E8E8"/>
</svg>
