<svg width="17" height="13" viewBox="0 0 17 13" fill="none" xmlns="http://www.w3.org/2000/svg">
<path id="Vector" d="M1.13542 0C0.681897 0 0.476526 0.280814 0.408069 0.611182C0.348169 0.867219 0.331055 1.27192 0.331055 1.75921C0.331055 5.75668 1.99114 7.47461 6.04721 7.47461H12.0286L14.1251 7.35896L11.2414 9.89457L9.34167 11.7611C9.20476 11.9015 9.13634 12.0915 9.13634 12.2897C9.13634 12.7027 9.4615 13 9.88933 13C10.0862 13 10.2744 12.9256 10.4627 12.7523L16.1275 7.29292C16.3072 7.12772 16.3928 6.93774 16.3928 6.73126C16.3928 6.53304 16.3072 6.33482 16.1275 6.17789L10.4456 0.693774C10.2744 0.536849 10.0862 0.470776 9.88933 0.470776C9.4615 0.470776 9.13634 0.768105 9.13634 1.18107C9.13634 1.37929 9.21338 1.56925 9.34167 1.7014L11.2414 3.56798L14.1337 6.12008L12.0286 5.99619H6.12423C2.98376 5.99619 1.87989 4.74905 1.87989 1.68488C1.87989 1.28843 1.90557 1.02414 1.90557 0.726811C1.90557 0.297332 1.5804 0 1.13542 0Z" fill="#ACACAC"/>
</svg>
