<svg width="33" height="26" viewBox="0 0 33 26" fill="none" xmlns="http://www.w3.org/2000/svg">
<path d="M29.0062 3.88289C28.3515 2.74719 27.3368 1.85775 26.1142 1.38471C24.82 0.883974 23.4796 0.481919 22.1017 0.186593C21.5329 0.0646775 20.959 0.338473 20.7092 0.863821C20.4406 1.42851 19.8386 1.77232 19.2171 1.70346C17.3963 1.50169 15.5876 1.50085 13.791 1.70095C13.1665 1.7705 12.5604 1.42628 12.2872 0.860416C12.0344 0.336955 11.4602 0.0644037 10.8918 0.186208C9.51783 0.480646 8.18109 0.881778 6.8908 1.38111C5.65632 1.85884 4.63437 2.76163 3.97746 3.91081C1.23545 8.70758 0.08911 13.4207 0.00502545 18.0782C-0.0360161 20.3515 1.13852 22.4832 3.10533 23.624C4.47553 24.4187 5.82808 25.0425 7.16785 25.5419C7.94911 25.8332 8.82591 25.5421 9.26487 24.8332C9.3972 24.6195 9.52594 24.4031 9.65098 24.1842C10.0085 23.5581 9.69828 22.7793 9.04813 22.4677C8.68916 22.2956 8.33681 22.1116 7.99162 21.9163C7.73487 21.7711 7.71746 21.4114 7.94494 21.2236C8.07253 21.1183 8.24924 21.0952 8.39952 21.1644C13.6775 23.5946 19.3828 23.5952 24.6 21.1659C24.7506 21.0958 24.9291 21.1188 25.0574 21.2243C25.2856 21.4118 25.2664 21.7706 25.0094 21.9161C24.6645 22.1114 24.3125 22.2953 23.9542 22.467C23.3003 22.7806 22.9884 23.5643 23.3478 24.1942C23.4718 24.4115 23.5995 24.6263 23.7308 24.8385C24.1688 25.5465 25.0442 25.8364 25.8245 25.546C27.1666 25.0463 28.5214 24.422 29.8935 23.6261C31.8617 22.4843 33.0374 20.3507 32.9946 18.0756C32.8965 12.8689 31.4789 8.1721 29.0062 3.88289ZM11.0181 17.7246C9.38812 17.7246 8.05138 16.1758 8.05138 14.2898C8.05138 12.4037 9.35957 10.8522 11.0181 10.8522C12.6767 10.8522 14.0134 12.401 13.9848 14.2898C13.9874 16.1758 12.6767 17.7246 11.0181 17.7246ZM21.9818 17.7246C20.3518 17.7246 19.015 16.1758 19.015 14.2898C19.015 12.4037 20.3232 10.8522 21.9818 10.8522C23.6403 10.8522 24.977 12.401 24.9485 14.2898C24.9485 16.1758 23.6403 17.7246 21.9818 17.7246Z" fill="white"/>
</svg>
