<svg xmlns="http://www.w3.org/2000/svg" width="28" height="28" viewBox="0 0 28 28" fill="none">
  <g clip-path="url(#clip0_2645_2690)">
    <path d="M22.05 -0.000251183H5.95C4.38787 -0.0142497 2.884 0.59212 1.76848 1.68577C0.652962 2.77941 0.0169344 4.27098 0 5.83308L0 9.33308C0 9.6425 0.122916 9.93925 0.341709 10.158C0.560501 10.3768 0.857247 10.4997 1.16667 10.4997C1.47609 10.4997 1.77283 10.3768 1.99162 10.158C2.21042 9.93925 2.33333 9.6425 2.33333 9.33308V5.83308C2.34991 4.88971 2.73998 3.99143 3.418 3.33529C4.09601 2.67915 5.00659 2.31872 5.95 2.33308H22.05C22.9934 2.31872 23.904 2.67915 24.582 3.33529C25.26 3.99143 25.6501 4.88971 25.6667 5.83308V22.1664C25.6501 23.1098 25.26 24.0081 24.582 24.6642C23.904 25.3203 22.9934 25.6808 22.05 25.6664H5.95C5.00659 25.6808 4.09601 25.3203 3.418 24.6642C2.73998 24.0081 2.34991 23.1098 2.33333 22.1664V18.6664C2.33333 18.357 2.21042 18.0602 1.99162 17.8415C1.77283 17.6227 1.47609 17.4997 1.16667 17.4997C0.857247 17.4997 0.560501 17.6227 0.341709 17.8415C0.122916 18.0602 0 18.357 0 18.6664L0 22.1664C0.0169344 23.7285 0.652962 25.2201 1.76848 26.3137C2.884 27.4074 4.38787 28.0137 5.95 27.9997H22.05C23.6121 28.0137 25.116 27.4074 26.2315 26.3137C27.347 25.2201 27.9831 23.7285 28 22.1664V5.83308C27.9831 4.27098 27.347 2.77941 26.2315 1.68577C25.116 0.59212 23.6121 -0.0142497 22.05 -0.000251183Z" fill="#FFAF14"/>
    <path d="M3.5 13.999C3.5 14.3084 3.62292 14.6052 3.84171 14.824C4.0605 15.0428 4.35725 15.1657 4.66667 15.1657L20.0527 15.1307L15.0092 20.1742C14.8977 20.2818 14.8089 20.4105 14.7477 20.5529C14.6866 20.6952 14.6544 20.8483 14.653 21.0032C14.6517 21.1581 14.6812 21.3117 14.7399 21.4551C14.7985 21.5985 14.8852 21.7288 14.9947 21.8383C15.1042 21.9478 15.2345 22.0345 15.3779 22.0931C15.5213 22.1518 15.6749 22.1813 15.8298 22.18C15.9847 22.1786 16.1378 22.1464 16.2801 22.0853C16.4225 22.0242 16.5512 21.9353 16.6588 21.8238L22.0092 16.4735C22.6653 15.8172 23.0339 14.9271 23.0339 13.999C23.0339 13.0709 22.6653 12.1809 22.0092 11.5245L16.6612 6.17418C16.4411 5.96166 16.1464 5.84407 15.8405 5.84672C15.5346 5.84938 15.242 5.97208 15.0257 6.18839C14.8094 6.4047 14.6867 6.69731 14.684 7.00321C14.6814 7.30911 14.799 7.60381 15.0115 7.82384L19.9838 12.7973L4.66667 12.8323C4.35725 12.8323 4.0605 12.9553 3.84171 13.1741C3.62292 13.3928 3.5 13.6896 3.5 13.999Z" fill="#FFAF14"/>
  </g>
  <defs>
    <clipPath id="clip0_2645_2690">
      <rect width="28" height="28" fill="white"/>
    </clipPath>
  </defs>
</svg>