<svg width="49" height="49" viewBox="0 0 49 49" fill="none" xmlns="http://www.w3.org/2000/svg">
<g id="fi-rr-info">
<path id="Vector" d="M24.4993 20.4172H22.4577C21.9162 20.4172 21.3969 20.6323 21.014 21.0152C20.6311 21.3981 20.416 21.9174 20.416 22.4589C20.416 23.0004 20.6311 23.5197 21.014 23.9026C21.3969 24.2855 21.9162 24.5006 22.4577 24.5006H24.4993V36.7506C24.4993 37.2921 24.7144 37.8114 25.0973 38.1942C25.4802 38.5771 25.9995 38.7922 26.541 38.7922C27.0825 38.7922 27.6018 38.5771 27.9847 38.1942C28.3676 37.8114 28.5827 37.2921 28.5827 36.7506V24.5006C28.5827 23.4176 28.1525 22.379 27.3867 21.6132C26.6209 20.8474 25.5823 20.4172 24.4993 20.4172Z" fill="white"/>
<path id="Vector_2" d="M24.5 16.3328C26.1914 16.3328 27.5625 14.9616 27.5625 13.2703C27.5625 11.5789 26.1914 10.2078 24.5 10.2078C22.8086 10.2078 21.4375 11.5789 21.4375 13.2703C21.4375 14.9616 22.8086 16.3328 24.5 16.3328Z" fill="white"/>
</g>
</svg>
