<svg xmlns="http://www.w3.org/2000/svg" width="45" height="45" viewBox="0 0 45 45" fill="none">
  <g clip-path="url(#clip0_3080_1309)">
    <path d="M43.125 30.0005C42.6277 30.0005 42.1508 30.198 41.7991 30.5497C41.4475 30.9013 41.25 31.3782 41.25 31.8755V35.6255C41.25 37.1173 40.6573 38.5481 39.6025 39.6029C38.5476 40.6578 37.1168 41.2505 35.625 41.2505H31.875C31.3777 41.2505 30.9008 41.448 30.5492 41.7996C30.1975 42.1513 30 42.6282 30 43.1255C30 43.6227 30.1975 44.0997 30.5492 44.4513C30.9008 44.8029 31.3777 45.0005 31.875 45.0005H35.625C38.1105 44.9975 40.4933 44.0088 42.2508 42.2513C44.0083 40.4938 44.997 38.111 45 35.6255V31.8755C45 31.3782 44.8024 30.9013 44.4508 30.5497C44.0992 30.198 43.6223 30.0005 43.125 30.0005Z" fill="#257CFF"/>
    <path d="M1.875 15C2.37228 15 2.84919 14.8025 3.20083 14.4508C3.55246 14.0992 3.75 13.6223 3.75 13.125V9.375C3.75 7.88316 4.34263 6.45242 5.39752 5.39752C6.45242 4.34263 7.88316 3.75 9.375 3.75H13.125C13.6223 3.75 14.0992 3.55246 14.4508 3.20083C14.8025 2.84919 15 2.37228 15 1.875C15 1.37772 14.8025 0.900806 14.4508 0.549175C14.0992 0.197544 13.6223 0 13.125 0L9.375 0C6.88951 0.00297723 4.50667 0.991654 2.74916 2.74916C0.991654 4.50667 0.00297723 6.88951 0 9.375L0 13.125C0 13.6223 0.197544 14.0992 0.549175 14.4508C0.900806 14.8025 1.37772 15 1.875 15Z" fill="#257CFF"/>
    <path d="M13.125 41.2505H9.375C7.88316 41.2505 6.45242 40.6578 5.39752 39.6029C4.34263 38.5481 3.75 37.1173 3.75 35.6255V31.8755C3.75 31.3782 3.55246 30.9013 3.20083 30.5497C2.84919 30.198 2.37228 30.0005 1.875 30.0005C1.37772 30.0005 0.900806 30.198 0.549175 30.5497C0.197544 30.9013 0 31.3782 0 31.8755L0 35.6255C0.00297723 38.111 0.991654 40.4938 2.74916 42.2513C4.50667 44.0088 6.88951 44.9975 9.375 45.0005H13.125C13.6223 45.0005 14.0992 44.8029 14.4508 44.4513C14.8025 44.0997 15 43.6227 15 43.1255C15 42.6282 14.8025 42.1513 14.4508 41.7996C14.0992 41.448 13.6223 41.2505 13.125 41.2505Z" fill="#257CFF"/>
    <path d="M35.625 0H31.875C31.3777 0 30.9008 0.197544 30.5492 0.549175C30.1975 0.900806 30 1.37772 30 1.875C30 2.37228 30.1975 2.84919 30.5492 3.20083C30.9008 3.55246 31.3777 3.75 31.875 3.75H35.625C37.1168 3.75 38.5476 4.34263 39.6025 5.39752C40.6573 6.45242 41.25 7.88316 41.25 9.375V13.125C41.25 13.6223 41.4475 14.0992 41.7991 14.4508C42.1508 14.8025 42.6277 15 43.125 15C43.6223 15 44.0992 14.8025 44.4508 14.4508C44.8024 14.0992 45 13.6223 45 13.125V9.375C44.997 6.88951 44.0083 4.50667 42.2508 2.74916C40.4933 0.991654 38.1105 0.00297723 35.625 0V0Z" fill="#257CFF"/>
    <path d="M22.5 20.625C26.6421 20.625 30 17.2671 30 13.125C30 8.98286 26.6421 5.625 22.5 5.625C18.3579 5.625 15 8.98286 15 13.125C15 17.2671 18.3579 20.625 22.5 20.625Z" fill="#257CFF"/>
    <path d="M20.625 24.3755C17.6422 24.3785 14.7825 25.5647 12.6733 27.6738C10.5642 29.783 9.37798 32.6427 9.375 35.6255C9.375 36.1228 9.57254 36.5997 9.92418 36.9513C10.2758 37.3029 10.7527 37.5005 11.25 37.5005H33.75C34.2473 37.5005 34.7242 37.3029 35.0758 36.9513C35.4275 36.5997 35.625 36.1228 35.625 35.6255C35.622 32.6427 34.4358 29.783 32.3267 27.6738C30.2175 25.5647 27.3578 24.3785 24.375 24.3755H20.625Z" fill="#257CFF"/>
  </g>
  <defs>
    <clipPath id="clip0_3080_1309">
      <rect width="45" height="45" fill="white"/>
    </clipPath>
  </defs>
</svg>