<svg width="21" height="24" viewBox="0 0 21 24" fill="none" xmlns="http://www.w3.org/2000/svg">
<path id="Vector" d="M11.7061 24C11.9883 24 12.1945 23.8001 12.2488 23.516C13.0193 17.7606 13.8549 16.8768 19.737 16.2455C20.0408 16.2139 20.2471 16.0035 20.2471 15.7194C20.2471 15.4458 20.0408 15.2355 19.737 15.2038C13.8549 14.5726 13.0193 13.6887 12.2488 7.92283C12.1945 7.63874 11.9883 7.44936 11.7061 7.44936C11.4239 7.44936 11.2178 7.63874 11.1744 7.92283C10.4039 13.6887 9.55733 14.5726 3.68614 15.2038C3.37141 15.2355 3.16522 15.4458 3.16522 15.7194C3.16522 16.0035 3.37141 16.2139 3.68614 16.2455C9.54649 16.9925 10.3604 17.7606 11.1744 23.516C11.2178 23.8001 11.4239 24 11.7061 24ZM4.34814 12.363C4.55434 12.363 4.69542 12.2262 4.71713 12.0368C5.10781 9.22748 5.20549 9.22748 8.20079 8.66987C8.38527 8.6383 8.52636 8.51205 8.52636 8.31213C8.52636 8.12275 8.38527 7.98596 8.20079 7.96492C5.20549 7.55457 5.09696 7.45987 4.71713 4.6085C4.69542 4.40859 4.55434 4.2718 4.34814 4.2718C4.15279 4.2718 4.01171 4.40859 3.97915 4.61902C3.63187 7.42831 3.46909 7.41779 0.495497 7.96492C0.311005 7.99648 0.169922 8.12275 0.169922 8.31213C0.169922 8.52257 0.311005 8.6383 0.538908 8.66987C3.49079 9.13285 3.63187 9.20647 3.97915 12.0158C4.01171 12.2262 4.15279 12.363 4.34814 12.363ZM9.60076 5.12406C9.7418 5.12406 9.81783 5.03989 9.8395 4.91363C10.1651 3.20912 10.1325 3.12494 12.0209 2.79877C12.1511 2.7672 12.2379 2.69355 12.2379 2.55677C12.2379 2.43051 12.1511 2.34634 12.0209 2.32529C10.1325 1.99912 10.1651 1.91495 9.8395 0.210434C9.81783 0.0841735 9.7418 0 9.60076 0C9.45963 0 9.38371 0.0841735 9.362 0.210434C9.03643 1.91495 9.06899 1.99912 7.18064 2.32529C7.03956 2.34634 6.9636 2.43051 6.9636 2.55677C6.9636 2.69355 7.03956 2.7672 7.18064 2.79877C9.06899 3.12494 9.03643 3.20912 9.362 4.91363C9.38371 5.03989 9.45963 5.12406 9.60076 5.12406Z" fill="white" fill-opacity="0.24"/>
</svg>
