<svg xmlns="http://www.w3.org/2000/svg" width="24" height="25" viewBox="0 0 24 25" fill="none">
  <g clip-path="url(#clip0_2869_2688)">
    <path d="M22.2 2.66316C21.6299 2.18752 20.9611 1.8448 20.242 1.65989C19.523 1.47499 18.7718 1.45253 18.043 1.59416L16.279 2.02616C15.3584 2.19485 14.5262 2.68099 13.9271 3.39998C13.3279 4.11896 12.9999 5.02527 13 5.96116V21.4282C12.3369 21.5252 11.6631 21.5252 11 21.4282V5.96116C11.0033 5.0339 10.6828 4.13457 10.0939 3.41836C9.50493 2.70215 8.68444 2.21401 7.774 2.03816L5.9 1.58216C5.17916 1.45025 4.43813 1.47841 3.72938 1.66463C3.02062 1.85086 2.36147 2.1906 1.79857 2.65981C1.23567 3.12902 0.782786 3.71623 0.471982 4.37986C0.161178 5.0435 4.88125e-05 5.76734 0 6.50016L0 17.2932C5.74559e-05 18.464 0.410977 19.5976 1.16113 20.4965C1.91129 21.3954 2.95311 22.0026 4.105 22.2122L10.391 23.3552C11.455 23.5485 12.545 23.5485 13.609 23.3552L19.9 22.2122C21.051 22.0015 22.0916 21.3939 22.8408 20.4951C23.5899 19.5963 24.0002 18.4632 24 17.2932V6.50016C24.0005 5.7676 23.8394 5.04395 23.5283 4.38075C23.2171 3.71754 22.7636 3.13109 22.2 2.66316Z" fill="#F0F6FF"/>
  </g>
  <defs>
    <clipPath id="clip0_2869_2688">
      <rect width="24" height="24" fill="white" transform="translate(0 0.5)"/>
    </clipPath>
  </defs>
</svg>