<svg width="24" height="24" viewBox="0 0 24 24" fill="none" xmlns="http://www.w3.org/2000/svg">
<g id="Group">
<path id="Vector" d="M13.8456 17.2654L10.584 20.527C8.59423 22.4635 5.41137 22.4204 3.47482 20.4307C1.57562 18.4794 1.5752 15.3707 3.47383 13.4189L6.73544 10.1543C7.12586 9.76356 7.12562 9.13035 6.73492 8.73993C6.34422 8.34951 5.71101 8.34974 5.32059 8.74045L2.05997 12.005C-0.683726 14.7501 -0.682601 19.1996 2.06245 21.9434C4.80751 24.6871 9.25706 24.6859 12.0008 21.9409L15.2624 18.6793C15.646 18.2821 15.635 17.6491 15.2378 17.2655C14.8504 16.8912 14.2361 16.8912 13.8486 17.2655H13.8456V17.2654Z" fill="#0A6CFF"/>
<path id="Vector_2" d="M21.9439 2.06127C20.6297 0.738005 18.8404 -0.00412696 16.9755 0.000513117C15.1115 -0.00445505 13.3229 0.73613 12.008 2.05729L8.74142 5.31987C8.35072 5.7103 8.35048 6.3435 8.74091 6.73421C9.13133 7.12491 9.76454 7.12515 10.1552 6.73472L13.4198 3.47312C14.3601 2.5272 15.6397 1.99687 16.9734 2.00029C19.75 2.00123 22.0001 4.2528 21.9992 7.02935C21.9987 8.36194 21.4692 9.63988 20.527 10.5823L17.2654 13.8439C16.8747 14.2346 16.8747 14.868 17.2654 15.2587C17.6561 15.6494 18.2895 15.6494 18.6802 15.2587L21.9418 11.9991C24.6817 9.25331 24.6826 4.80811 21.9439 2.06127Z" fill="#0A6CFF"/>
<path id="Vector_3" d="M14.2938 8.29286L8.29451 14.2921C7.89729 14.6758 7.88632 15.3088 8.26995 15.706C8.65357 16.1031 9.28659 16.1142 9.68376 15.7305C9.6921 15.7225 9.70026 15.7143 9.70832 15.706L15.7076 9.70668C16.0912 9.30946 16.0802 8.67649 15.683 8.29286C15.2956 7.91866 14.6813 7.91866 14.2938 8.29286Z" fill="#0A6CFF"/>
</g>
</svg>
