<svg xmlns="http://www.w3.org/2000/svg" width="32" height="32" viewBox="0 0 32 32" fill="none">
  <g clip-path="url(#clip0_3195_1817)">
    <path d="M25.2 -0.000217311H6.8C5.01471 -0.0162157 3.296 0.676779 2.02112 1.92666C0.746242 3.17654 0.0193537 4.88119 0 6.66645L0 10.6664C0 11.0201 0.140476 11.3592 0.390524 11.6093C0.640573 11.8593 0.979711 11.9998 1.33333 11.9998C1.68696 11.9998 2.02609 11.8593 2.27614 11.6093C2.52619 11.3592 2.66667 11.0201 2.66667 10.6664V6.66645C2.68561 5.58831 3.13141 4.56171 3.90628 3.81183C4.68115 3.06195 5.72182 2.65004 6.8 2.66645H25.2C26.2782 2.65004 27.3188 3.06195 28.0937 3.81183C28.8686 4.56171 29.3144 5.58831 29.3333 6.66645V25.3331C29.3144 26.4113 28.8686 27.4379 28.0937 28.1877C27.3188 28.9376 26.2782 29.3495 25.2 29.3331H6.8C5.72182 29.3495 4.68115 28.9376 3.90628 28.1877C3.13141 27.4379 2.68561 26.4113 2.66667 25.3331V21.3331C2.66667 20.9795 2.52619 20.6404 2.27614 20.3903C2.02609 20.1403 1.68696 19.9998 1.33333 19.9998C0.979711 19.9998 0.640573 20.1403 0.390524 20.3903C0.140476 20.6404 0 20.9795 0 21.3331L0 25.3331C0.0193537 27.1184 0.746242 28.823 2.02112 30.0729C3.296 31.3228 5.01471 32.0158 6.8 31.9998H25.2C26.9853 32.0158 28.704 31.3228 29.9789 30.0729C31.2538 28.823 31.9806 27.1184 32 25.3331V6.66645C31.9806 4.88119 31.2538 3.17654 29.9789 1.92666C28.704 0.676779 26.9853 -0.0162157 25.2 -0.000217311Z" fill="#EB9C00"/>
    <path d="M4 15.9991C4 16.3527 4.14048 16.6918 4.39052 16.9419C4.64057 17.1919 4.97971 17.3324 5.33333 17.3324L22.9173 17.2924L17.1533 23.0564C17.026 23.1794 16.9244 23.3265 16.8545 23.4892C16.7847 23.6519 16.7479 23.8268 16.7463 24.0039C16.7448 24.1809 16.7785 24.3565 16.8456 24.5203C16.9126 24.6842 17.0116 24.8331 17.1368 24.9583C17.262 25.0835 17.4109 25.1825 17.5747 25.2495C17.7386 25.3165 17.9142 25.3503 18.0912 25.3487C18.2682 25.3472 18.4432 25.3104 18.6059 25.2405C18.7685 25.1707 18.9157 25.0691 19.0387 24.9417L25.1533 18.8271C25.9032 18.077 26.3245 17.0597 26.3245 15.9991C26.3245 14.9384 25.9032 13.9212 25.1533 13.1711L19.0413 7.05641C18.7899 6.81353 18.4531 6.67914 18.1035 6.68218C17.7539 6.68522 17.4195 6.82544 17.1722 7.07265C16.925 7.31986 16.7848 7.65428 16.7818 8.00388C16.7787 8.35347 16.9131 8.69027 17.156 8.94174L22.8387 14.6257L5.33333 14.6657C4.97971 14.6657 4.64057 14.8062 4.39052 15.0563C4.14048 15.3063 4 15.6455 4 15.9991Z" fill="#EB9C00"/>
  </g>
  <defs>
    <clipPath id="clip0_3195_1817">
      <rect width="32" height="32" fill="white"/>
    </clipPath>
  </defs>
</svg>