<svg width="34" height="34" viewBox="0 0 34 34" fill="none" xmlns="http://www.w3.org/2000/svg">
<path d="M4.77074 27.3177C8.38252 25.2763 12.5552 24.1111 17 24.1111C21.4448 24.1111 25.6174 25.2763 29.2293 27.3177M22.3333 13.4444C22.3333 16.39 19.9456 18.7778 17 18.7778C14.0544 18.7778 11.6667 16.39 11.6667 13.4444C11.6667 10.4989 14.0544 8.11111 17 8.11111C19.9456 8.11111 22.3333 10.4989 22.3333 13.4444ZM33 17C33 25.8366 25.8366 33 17 33C8.16345 33 1 25.8366 1 17C1 8.16345 8.16345 1 17 1C25.8366 1 33 8.16345 33 17Z" stroke="#FFAF14" stroke-width="2" stroke-linecap="round" stroke-linejoin="round"/>
</svg>
