<svg xmlns="http://www.w3.org/2000/svg" width="20" height="24" viewBox="0 0 20 24" fill="none">
  <path d="M13 7.99995H19.54C19.1909 7.07482 18.6485 6.23482 17.949 5.53596L14.465 2.04996C13.7653 1.35129 12.9251 0.809273 12 0.459961V6.99996C12 7.5522 12.4477 7.99995 13 7.99995Z" fill="#F0F6FF"/>
  <path d="M19.976 9.99998H13C11.3431 9.99998 9.99998 8.65683 9.99998 6.99998V0.024C9.83897 0.0129844 9.678 0 9.51497 0H4.99997C2.23992 0.00332812 0.00328125 2.23997 0 5.00002V19C0.00328125 21.76 2.23992 23.9967 4.99997 24H15C17.76 23.9967 19.9966 21.76 20 19V10.485C20 10.322 19.987 10.161 19.976 9.99998Z" fill="#F0F6FF"/>
</svg>